<svg xmlns="http://www.w3.org/2000/svg" width="2400" height="1350" viewBox="0 0 2400 1350">
  <defs>
    <linearGradient id="night" x1="0" y1="0" x2="1" y2="1">
      <stop offset="0" stop-color="#120e0c"/>
      <stop offset="0.52" stop-color="#241713"/>
      <stop offset="1" stop-color="#5a3424"/>
    </linearGradient>
    <radialGradient id="glow" cx="0.78" cy="0.34" r="0.54">
      <stop offset="0" stop-color="#efb475" stop-opacity="0.72"/>
      <stop offset="0.38" stop-color="#b96f48" stop-opacity="0.32"/>
      <stop offset="1" stop-color="#5a3424" stop-opacity="0"/>
    </radialGradient>
    <linearGradient id="dune" x1="0" y1="0" x2="0" y2="1">
      <stop offset="0" stop-color="#bd784d" stop-opacity="0.62"/>
      <stop offset="1" stop-color="#42261d" stop-opacity="0.88"/>
    </linearGradient>
  </defs>
  <rect width="2400" height="1350" fill="url(#night)"/>
  <rect width="2400" height="1350" fill="url(#glow)"/>
  <circle cx="1880" cy="410" r="190" fill="#f4c58c" fill-opacity="0.28"/>
  <path d="M0 1020 C420 830 800 840 1170 1010 C1500 1160 1840 1050 2400 800 L2400 1350 L0 1350 Z" fill="url(#dune)"/>
  <path d="M0 1190 C420 1020 860 1075 1240 1205 C1630 1335 2020 1130 2400 1015 L2400 1350 L0 1350 Z" fill="#221713" fill-opacity="0.72"/>
  <ellipse cx="1760" cy="565" rx="660" ry="315" fill="#efb475" fill-opacity="0.08"/>
</svg>
